<svg width="16" height="15" viewBox="0 0 16 15" fill="none" xmlns="http://www.w3.org/2000/svg">
<g clip-path="url(#clip0_1_112)">
<path d="M9.10583 5.43002C9.51197 5.62393 9.86565 5.91247 10.1371 6.27142C10.4086 6.63036 10.59 7.04922 10.6661 7.4928C10.7421 7.93639 10.7106 8.39175 10.5742 8.82063C10.4378 9.24951 10.2004 9.63939 9.88208 9.95752L7.06958 12.77C6.54213 13.2975 5.82675 13.5938 5.08083 13.5938C4.3349 13.5938 3.61953 13.2975 3.09208 12.77C2.56463 12.2426 2.26831 11.5272 2.26831 10.7813C2.26831 10.0353 2.56463 9.31997 3.09208 8.79252L4.1902 7.69439M12.534 7.30564L13.6321 6.20752C14.1595 5.68007 14.4558 4.96469 14.4558 4.21877C14.4558 3.47284 14.1595 2.75747 13.6321 2.23002C13.1046 1.70257 12.3893 1.40625 11.6433 1.40625C10.8974 1.40625 10.182 1.70257 9.65458 2.23002L6.84208 5.04252C6.52373 5.36064 6.28637 5.75052 6.14994 6.17941C6.01352 6.60829 5.98201 7.06365 6.05806 7.50723C6.13411 7.95082 6.31551 8.36968 6.58701 8.72862C6.85851 9.08756 7.21219 9.37611 7.61833 9.57002" stroke="black" stroke-width="1.5" stroke-linecap="round" stroke-linejoin="round"/>
</g>
<defs>
<clipPath id="clip0_1_112">
<rect width="15" height="15" fill="white" transform="translate(0.862061)"/>
</clipPath>
</defs>
</svg>
