<svg width="30" height="20" viewBox="0 0 30 20" fill="none" xmlns="http://www.w3.org/2000/svg">
<g clip-path="url(#clip0_4_486)">
<path d="M2.02543 20.0001H6.75142V9.69707L0 5.15161V18.1819C0 19.188 0.908066 20.0001 2.02543 20.0001Z" fill="#4285F4"/>
<path d="M22.9548 20.0001H27.6808C28.8016 20.0001 29.7063 19.1849 29.7063 18.1819V5.15161L22.9548 9.69707" fill="#34A853"/>
<path d="M22.9548 1.81821V9.697L29.7063 5.15155V2.7273C29.7063 0.478819 26.847 -0.802999 24.8452 0.545485" fill="#FBBC04"/>
<path d="M6.75146 9.6969V1.81812L14.8532 7.27266L22.9549 1.81812V9.6969L14.8532 15.1514" fill="#EA4335"/>
<path d="M0 2.7273V5.15155L6.75142 9.697V1.81821L4.86103 0.545485C2.85585 -0.802999 0 0.478819 0 2.7273Z" fill="#C5221F"/>
</g>
<defs>
<clipPath id="clip0_4_486">
<rect width="29.7063" height="20" fill="white"/>
</clipPath>
</defs>
</svg>
