<svg width="26" height="23" viewBox="0 0 26 23" fill="none" xmlns="http://www.w3.org/2000/svg">
<path d="M19.8421 5.44729L13.6843 4.84204L6.15795 5.44729L5.47363 11.5L6.15782 17.5526L13 18.3092L19.8421 17.5526L20.5263 11.3487L19.8421 5.44729Z" fill="white"/>
<path d="M8.96486 14.8379C8.45344 14.5323 8.09932 14.0859 7.90601 13.4958L9.09317 13.063C9.20094 13.4262 9.38905 13.7076 9.65763 13.9073C9.92452 14.1071 10.2495 14.2054 10.6292 14.2054C11.0176 14.2054 11.3511 14.101 11.6299 13.8922C11.9086 13.6833 12.049 13.417 12.049 13.0948C12.049 12.7649 11.9018 12.4955 11.6076 12.2868C11.3134 12.078 10.944 11.9735 10.5026 11.9735H9.81675V10.934H10.4324C10.8122 10.934 11.1321 10.8433 11.3921 10.6617C11.6521 10.4801 11.7821 10.2319 11.7821 9.9157C11.7821 9.63429 11.6657 9.41027 11.4332 9.24237C11.2006 9.07447 10.9063 8.98971 10.5488 8.98971C10.1999 8.98971 9.9227 9.07148 9.71743 9.23639C9.51216 9.4013 9.36331 9.60405 9.26932 9.84313L8.09425 9.41039C8.24986 9.01996 8.5356 8.67496 8.95459 8.37688C9.37371 8.0788 9.90905 7.92896 10.559 7.92896C11.0397 7.92896 11.4724 8.01072 11.8557 8.17563C12.2388 8.34054 12.5399 8.56905 12.7571 8.85954C12.9743 9.15152 13.0821 9.47847 13.0821 9.84152C13.0821 10.2123 12.9812 10.5254 12.7793 10.7827C12.5774 11.0399 12.3294 11.2366 12.0352 11.3744V11.4363C12.4235 11.5801 12.7399 11.7995 12.9897 12.0946C13.2377 12.3897 13.3625 12.7423 13.3625 13.1539C13.3625 13.5655 13.2445 13.9331 13.0084 14.2555C12.7723 14.5778 12.4456 14.8319 12.0317 15.0165C11.6161 15.2011 11.1491 15.2949 10.6308 15.2949C10.0305 15.2964 9.47628 15.1436 8.96486 14.8379Z" fill="#1A73E8"/>
<path d="M16.2501 9.62683L14.9534 10.4606L14.3018 9.586L16.6401 8.09399H17.5364V15.1316H16.2501V9.62683Z" fill="#1A73E8"/>
<path d="M19.8423 23.0001L26.0001 17.5528L22.9212 16.3423L19.8423 17.5528L18.4739 20.2764L19.8423 23.0001Z" fill="#EA4335"/>
<path d="M4.78955 20.2764L6.15793 23.0001H19.8421V17.5527H6.15793L4.78955 20.2764Z" fill="#34A853"/>
<path d="M2.05257 0C0.91858 0 0 0.81259 0 1.81573V17.5526L3.07892 18.7631L6.15784 17.5526V5.44732H19.842L21.2104 2.72366L19.8422 0H2.05257Z" fill="#4285F4"/>
<path d="M0 17.5527V21.1843C0 22.1876 0.91858 23.0001 2.05257 23.0001H6.15784V17.5527H0Z" fill="#188038"/>
<path d="M19.842 5.44731V17.5526H25.9999V5.44731L22.921 4.23682L19.842 5.44731Z" fill="#FBBC04"/>
<path d="M25.9999 5.44732V1.81573C25.9999 0.812475 25.0813 0 23.9473 0H19.842V5.44732H25.9999Z" fill="#1967D2"/>
</svg>
