<svg width="19" height="19" viewBox="0 0 19 19" fill="none" xmlns="http://www.w3.org/2000/svg">
<path d="M4.90625 1.625V3.59375M14.0938 1.625V3.59375M1.625 15.4062V5.5625C1.625 5.04036 1.83242 4.5396 2.20163 4.17038C2.57085 3.80117 3.07161 3.59375 3.59375 3.59375H15.4062C15.9284 3.59375 16.4292 3.80117 16.7984 4.17038C17.1676 4.5396 17.375 5.04036 17.375 5.5625V15.4062M1.625 15.4062C1.625 15.9284 1.83242 16.4292 2.20163 16.7984C2.57085 17.1676 3.07161 17.375 3.59375 17.375H15.4062C15.9284 17.375 16.4292 17.1676 16.7984 16.7984C17.1676 16.4292 17.375 15.9284 17.375 15.4062M1.625 15.4062V8.84375C1.625 8.32161 1.83242 7.82085 2.20163 7.45163C2.57085 7.08242 3.07161 6.875 3.59375 6.875H15.4062C15.9284 6.875 16.4292 7.08242 16.7984 7.45163C17.1676 7.82085 17.375 8.32161 17.375 8.84375V15.4062M9.5 10.1562H9.507V10.1633H9.5V10.1562ZM9.5 12.125H9.507V12.132H9.5V12.125ZM9.5 14.0938H9.507V14.1007H9.5V14.0938ZM7.53125 12.125H7.53825V12.132H7.53125V12.125ZM7.53125 14.0938H7.53825V14.1007H7.53125V14.0938ZM5.5625 12.125H5.5695V12.132H5.5625V12.125ZM5.5625 14.0938H5.5695V14.1007H5.5625V14.0938ZM11.4688 10.1562H11.4758V10.1633H11.4688V10.1562ZM11.4688 12.125H11.4758V12.132H11.4688V12.125ZM11.4688 14.0938H11.4758V14.1007H11.4688V14.0938ZM13.4375 10.1562H13.4445V10.1633H13.4375V10.1562ZM13.4375 12.125H13.4445V12.132H13.4375V12.125Z" stroke="black" stroke-width="1.5" stroke-linecap="round" stroke-linejoin="round"/>
</svg>
